<svg id="Layer_1" data-name="Layer 1" xmlns="http://www.w3.org/2000/svg" viewBox="0 0 245.15 192.46"><defs><style>.cls-1{fill:#07c57b;}.cls-2{fill:#fff;}</style></defs><title>announcements-11111ghfgh</title><g id="Layer_3" data-name="Layer 3"><path class="cls-1" d="M353.42,369.07c6.29,37.49.69,69.65-12.52,71.82s-29-26.46-35.31-63.95-.69-69.65,12.52-71.82S347.12,331.57,353.42,369.07Z" transform="translate(-179.86 -294.82)"/><path class="cls-2" d="M330.26,380.48C333,396.76,332.44,410.42,329,411s-8.49-12.18-11.24-28.46S315.56,352.58,319,352,327.51,364.19,330.26,380.48Z" transform="translate(-179.86 -294.82)"/><path class="cls-1" d="M181.7,400.5s3.55-12,33.55-21l28.5-12.75,20.5-11.5,19-13,14.5-12.75,10.5-14,4.5-8,4.76-2-11,20-2,11.5-10,9.5s-46.75,24.1-48.5,34.55c0,0-7.25,24.45,9.25,33.95,0,0,40.5,4.25,50.75,5.25,0,0,14.64,3.59,17.88,6.5,0,0,14.08,11.51,13.6,13.26S301.75,420,256,425.75c0,0-9-.75,7.25,27.25,0,0,10.25,16.75,8.5,29.25,0,0-15.75,16.5-30.5-10.25,0,0-6.75-25.25-15.5-38,0,0-2.75-5.75-20.5-3.75,0,0-10.25,1.25-21-7C184.25,423.25,176.39,409.75,181.7,400.5Z" transform="translate(-179.86 -294.82)"/><path class="cls-1" d="M350,336s34.67,22.33,16.33,82c0,0-2.33,8,4,4.33s7.33-16.67,12.67-33c0,0,3-37-28.67-56.67C354.33,332.67,345.67,328.33,350,336Z" transform="translate(-179.86 -294.82)"/><path class="cls-1" d="M357,320s52.15,21.59,26.08,103.3c0,0-10.74,26.7,4.59,5.7,0,0,14-15.67,14-45.33,0,0,5.67-33.33-29.67-63.67l-19.67-9.33s-9-3,2.67,8.67Z" transform="translate(-179.86 -294.82)"/><path class="cls-1" d="M370.67,302.33S396,308,407.33,354c0,0,15.67,36.44-7.67,83.05,0,0-5.33,13.39,6.67,0,0,0,15-14.39,18.67-50.72,0,0,1-41.67-23-69.33,0,0-12.33-18-31.33-21.67C370.67,295.33,350.67,292,370.67,302.33Z" transform="translate(-179.86 -294.82)"/></g></svg>