<svg id="Layer_1" data-name="Layer 1" xmlns="http://www.w3.org/2000/svg" viewBox="0 0 43.77 43.78"><defs><style>.cls-1{fill:#fff;}</style></defs><title>cancel</title><g id="Layer_3" data-name="Layer 3"><g id="Layer_2" data-name="Layer 2"><path class="cls-1" d="M439.73,362.31a21.83,21.83,0,0,0-20.26-8.2,21.9,21.9,0,0,0-18.1,16,21.54,21.54,0,0,0-.72,4.46c0,.09,0,.17,0,.26v2c0,.45.08.9.13,1.35a21.2,21.2,0,0,0,2.84,8.66,21.68,21.68,0,0,0,11.35,9.54,21,21,0,0,0,8.7,1.31A21.5,21.5,0,0,0,439,390.16a20.88,20.88,0,0,0,5.08-10.74A21.38,21.38,0,0,0,439.73,362.31Zm-17.3,30.9A17.42,17.42,0,1,1,440,375.8,17.42,17.42,0,0,1,422.42,393.21Zm10.24-10.75a.81.81,0,0,1,0,1.31l-1.93,1.93a.81.81,0,0,1-.61.27.87.87,0,0,1-.63-.3l-5.46-5.31c-.46-.45-.93-.9-1.39-1.36-.12-.12-.18-.11-.29,0l-6.81,6.64a.82.82,0,0,1-1.33,0l-1.88-1.88a.8.8,0,0,1,0-1.26l6.74-6.56c.21-.2.21-.2,0-.39L412.39,369a.81.81,0,0,1,0-1.31l1.88-1.88a.81.81,0,0,1,1.28,0l6.82,6.63c.14.13.2.14.35,0l6.76-6.59a.83.83,0,0,1,1.36,0l1.86,1.86a.81.81,0,0,1,0,1.28l-6.76,6.57c-.15.14-.15.21,0,.35Z" transform="translate(-400.62 -353.9)"/></g></g></svg>