<?xml version="1.0" encoding="iso-8859-1"?>
<!-- Generator: Adobe Illustrator 16.0.0, SVG Export Plug-In . SVG Version: 6.00 Build 0)  -->
<!DOCTYPE svg PUBLIC "-//W3C//DTD SVG 1.0//EN" "http://www.w3.org/TR/2001/REC-SVG-20010904/DTD/svg10.dtd">
<svg version="1.0" id="Layer_1" xmlns="http://www.w3.org/2000/svg" xmlns:xlink="http://www.w3.org/1999/xlink" x="0px" y="0px"
	 width="176.688px" height="109.834px" viewBox="0 0 176.688 169.834" style="enable-background:new 0 0 176.688 169.834;"
	 xml:space="preserve">
<path style="fill-rule:evenodd;clip-rule:evenodd;fill:#DCF1FA;" d="M163.76,169.405c0.443-1.07,1.224-1.441,2.389-1.402
	c2.292,0.079,4.59-0.018,6.883,0.041c1.06,0.027,1.397-0.342,1.374-1.398c-0.063-2.834-0.028-5.67-0.02-8.504
	c0.005-1.498,0.697-2.604,1.985-3.35c0.524,1.707,0.243,3.461,0.224,5.186c-0.036,3.285,0.276,6.58-0.177,9.857
	c-0.271,0-0.543,0-0.814,0c-3.147-0.47-6.315-0.063-9.469-0.213C165.342,169.583,164.517,169.849,163.76,169.405z"/>
<path style="fill-rule:evenodd;clip-rule:evenodd;fill:#D3ECF4;" d="M0.085,0.411C0.079,0.274,0.073,0.137,0.067,0
	C4.14,0,8.212,0,12.285,0c0.081,0.384,0.077,0.734-0.367,0.905C8.514,1.163,5.102,0.914,1.697,1.054
	C1.038,1.082,0.529,0.86,0.085,0.411z"/>
<path style="fill-rule:evenodd;clip-rule:evenodd;fill:#FCCDB5;" d="M100.058,88.925c0.01,0.326,0.02,0.652,0.03,0.978
	c-0.335,0.101-0.611-0.008-0.855-0.232c-0.409-1.347-0.89-1.351-1.97-0.408c-6.694,5.845-17.036,5.715-23.668-0.192
	c-0.617-0.549-1.172-1.127-1.438-1.929c-0.131-0.268-0.219-0.556-0.377-0.81c-3.017-3.498-5.086-7.513-6.353-11.929
	c-0.345-1.201-0.593-1.936-2.15-2.043c-2.299-0.158-2.852-2.328-3.236-4.087c-1.045-4.78-1.749-9.623-1.238-14.55
	c1.088,0.131,1.257,1.112,1.671,1.845c0.631,1.114,0.998,2.367,2.042,3.776c0.419-2.579,0.333-4.891,0.681-7.144
	c0.569-3.683,1.146-7.357,2.854-10.725c1.64-3.236,3.487-4.141,7.07-3.687c3.35,0.425,6.654,1.181,10.037,1.359
	c0.62,0.106,1.24,0.22,1.868,0.055c0.803-0.144,1.641,0.257,2.424-0.169c0.294-0.09,0.6-0.117,0.899-0.172
	c0.519-0.009,1-0.172,1.477-0.36c1.7-0.641,3.465-1.119,5.215-1.527c2.597-0.606,4.911,0.229,6.729,2.254
	c0.269,0.451,0.573,0.875,0.966,1.232c0.214,0.234,0.412,0.481,0.571,0.757c2.889,4.738,3.888,10.035,4.561,15.428
	c0.101,0.448-0.298,0.919,0.066,1.33c0.642-1.054,1.107-2.167,1.627-3.256c0.843-1.03,0.361-2.849,2.021-3.388
	c2.255,4.569,1.283,9.253,0.469,13.922c-0.262,1.504-0.563,3.008-0.979,4.475c-0.576,2.033-1.765,2.895-3.837,2.495
	c-1.21-0.233-0.898,0.699-0.991,1.028c-0.851,3.046-2.067,5.933-3.638,8.664c-0.765,1.33-1.695,2.564-2.551,3.841
	C100.054,86.811,100.046,87.868,100.058,88.925z"/>
<path style="fill-rule:evenodd;clip-rule:evenodd;fill:#B9D6DF;" d="M135.09,130.029c1.171,2.736,1.272,5.708,1.718,8.579
	c0.514,3.312,0.828,6.701,0.752,10.046c-0.156,6.707-1.712,13.132-4.799,19.143c-0.576,1.12-1.329,1.761-2.703,1.648
	c-3.754-0.307-7.536,0.428-11.304-0.376c-0.667-0.142-1.641,0.364-2.521,0.364c-24.765-0.008-49.53-0.027-74.295,0.038
	c-1.811,0.005-2.534-0.557-2.738-2.297c-0.491-4.176-0.544-8.34-0.03-12.513c0.025-0.202,0.053-0.406,0.042-0.607
	c-0.315-5.748,0.463-11.443,0.814-17.159c1.467,0.278,2.782,1.237,4.402,0.882c0.483-0.105,0.817,0.392,1.022,0.853
	c0.356,0.91,0.251,1.863,0.254,2.799c0.016,5.788-0.002,11.575,0.016,17.362c0.003,0.926-0.174,1.899,0.469,2.718
	c0.923,0.697,1.982,0.8,3.089,0.799c15.587-0.008,31.175-0.007,46.762-0.002c1.177,0,2.302-0.133,3.23-0.945
	c0.536-0.875,0.37-1.845,0.371-2.779c0.018-12.037-0.008-24.074,0.018-36.112c0.023-0.525,0.017-1.059,0.333-1.519
	c0.167-0.199,0.372-0.35,0.611-0.452c2.175-0.293,4.362-0.091,6.544-0.128c0.563-0.017,1.075,0.209,1.602,0.363
	c0.299,0.054,0.602,0.102,0.881,0.232c0.484,0.294,0.938,0.661,1.548,0.686c3.748,2.051,7.091,4.615,10.135,7.628
	c1.801,1.782,3.663,3.589,6.556,3.616c2.011,0.018,3.715-0.415,5.136-1.896C133.544,130.436,134.129,129.776,135.09,130.029z"/>
<path style="fill-rule:evenodd;clip-rule:evenodd;fill:#975F3E;" d="M110.079,55.003c-0.217,1.714-1.611,2.869-2.113,4.447
	c-1.233-0.499-0.154-1.733-0.772-2.428c-0.725-5.511-1.732-10.938-4.635-15.811c-0.268-2.365-2.17-4.146-4.459-4.147
	c-1.681,0-3.399-0.219-4.921,0.801c-0.285,0.191-0.752,0.368-0.96,0.193c-1.619-1.367-1.862,0.338-2.534,1.088
	c-0.367,0.307-0.791,0.393-1.255,0.318c-0.263-0.202-0.59-0.135-0.882-0.211c0.021,0.12,0.079,0.219,0.176,0.3
	c-0.813,0.411-1.679,0.4-2.553,0.316c-0.671-0.25-1.34-0.266-2.009,0.01c-3.402-0.001-6.685-0.919-10.032-1.333
	c-3.735-0.461-5.21,0.315-6.693,3.764c-1.875,4.36-2.422,9.015-2.838,13.686c-0.153,1.723-0.271,3.448-0.438,5.606
	c-2.271-2.532-3.156-5.296-4.36-7.881c-0.338-1.045-0.914-2.023-0.881-3.17c-0.21-0.723-0.52-1.423-0.477-2.2
	c-0.452-1.691-0.821-3.409-0.76-5.158c0.042-1.212-0.414-2.052-1.289-2.798c-2.715-2.315-5.073-4.95-7.149-8.17
	c1.306,0.273,2.179,1.254,3.433,1.118c1.158-0.126,2.34-0.027,3.554-0.258c-3.468-1.776-6.379-3.907-7.542-7.754
	c-0.197-1.653-1.061-3.136-1.245-4.784c-0.086-0.771-0.255-0.229-0.428-0.082c-1.187-2.283-1.018-4.8-1.208-7.319
	c1.386,1.755,2.469,3.72,4.106,5.239c0.457,0.596,0.99,1.116,1.563,1.599c1.003,0.441,1.459,1.599,2.539,1.939
	c0.305-0.11,0.712,0.063,0.912-0.333c-1.712-1.712-3.202-3.565-3.785-5.991c-0.071-0.733-0.834-1.342-0.391-2.167
	c1.431,0.825,2.885,1.613,4.289,2.482c1.958,1.212,4.015,1.693,6.544,1.124c-3.087-1.508-5.466-3.413-6.718-6.451
	c0.549-0.58,0.095-1.101-0.126-1.608c-0.331-0.757-0.389-1.387,0.537-1.735c4.196,3.312,9.055,4.858,14.298,5.395
	c1.206,0.124,2.405,0.306,3.607,0.461c4.021,0.313,8.051,0.043,12.074,0.145c0.728,0.018,1.479-0.17,2.182,0.175
	c0.405,0.024,0.811,0.048,1.215,0.072c0.643,0.375,1.422-0.086,2.056,0.337c7.839,0.748,14.291,3.84,18.272,10.971
	c1.002,1.794,2.171,3.545,2.495,5.651c0.186,0.539,0.663,0.979,0.544,1.62c-0.471,1.275,0.266,2.411,0.424,3.613
	c0.006,0.044,0.075,0.116,0.107,0.112c0.059-0.006,0.112-0.06,0.168-0.094c0.834,0.982,0.756,2.259,1.098,3.401
	c-0.621,2.169-0.721,4.339-0.003,6.508c-0.57,1.584-1.066,3.188-1.195,4.88C110.439,51.768,110.048,53.313,110.079,55.003z"/>
<path style="fill-rule:evenodd;clip-rule:evenodd;fill:#FCCDB5;" d="M135.09,130.029c-1.94,1.716-3.538,3.703-6.658,3.692
	c-3.471-0.011-5.741-1.902-7.735-4.104c-1.566-1.729-3.521-2.861-5.209-4.372c-1.366-1.222-3.04-2.102-4.577-3.133
	c0.06-0.991,0.844-0.881,1.472-0.919c1.069-0.065,2.148-0.095,3.213-0.01c2.095,0.167,4-0.129,5.464-1.81
	c2.171-0.016,4.292-0.122,6.043-1.734c0.587-0.54,1.408-0.222,2.133,0.026c1.938,0.664,2.926,0.368,3.741-1.466
	c0.545-1.225,1.25-1.583,2.351-1.027c1.201,0.607,1.938,0.037,2.604-0.811c1.056-1.346,1.268-2.92,1.258-4.586
	c-0.005-0.816-0.316-2.035,1.256-1.882c0.04,4.461,0.444,8.958,0.005,13.371C140.096,124.804,138.429,128.059,135.09,130.029z"/>
<path style="fill-rule:evenodd;clip-rule:evenodd;fill:#C4C4C4;" d="M101.515,94.437c2.812,0.756,5.616,0.911,8.407-0.097
	c0.396-0.007,0.787,0.01,1.13,0.248c0.399,0.268,0.675,0.661,1.003,1.002c1.948,2.034,3.703,2.114,5.842,0.262
	c0.408-0.354,0.763-0.781,1.35-0.859c0.633-0.004,1.096,0.28,1.41,0.821c0.437,1.323,1.121,2.659-0.21,3.888
	c-0.63,0.324-1.315,0.276-1.988,0.276c-12.239,0.01-24.479,0.012-36.718-0.001c-1.294-0.001-2.704,0.118-2.802-1.787
	c0.023-1.405,0.581-2.552,1.661-3.45c0.837-0.57,1.797-0.439,2.724-0.445c3.146-0.02,6.291-0.006,9.436-0.008
	c0.867,0.001,1.734,0.013,2.598-0.097C97.407,94.318,99.49,93.637,101.515,94.437z"/>
<path style="fill-rule:evenodd;clip-rule:evenodd;fill:#F1F0F0;" d="M65.199,100.935c0.697-1.319,1.413-2.629,2.088-3.959
	c1.129-2.225,2.78-4.037,4.503-5.797c0.168-0.129,0.357-0.2,0.568-0.212c2.325,1.582,4.453,3.4,6.422,5.404
	c0.508,0.517,0.595,1.189,0.394,1.891c-0.165,1.154,0.181,2.285,0.112,3.439c-0.12,2.011-0.694,2.696-2.694,2.738
	c-2.701,0.056-5.406,0.099-8.104-0.103c-0.228,0.037-0.456,0.035-0.683,0.002C66.449,103.58,65.091,102.817,65.199,100.935z"/>
<path style="fill-rule:evenodd;clip-rule:evenodd;fill:#FCCDB5;" d="M36.857,123.039c-1.703-2.524-1.317-4.966,1.049-6.767
	c0.201-0.153,0.311-0.425,0.463-0.642c0.679-1.17,1.95-1.353,3.043-1.84c1.043-0.464,2.151-0.795,3.1-1.464
	c1.781-0.417,3.345-1.471,5.179-1.74c2.559-0.376,4.575,1.081,4.757,3.479c0.128,1.7-0.81,2.813-2.109,3.677
	c-1.919,1.274-3.979,2.299-6.069,3.259c-0.273,0.16-0.538,0.335-0.805,0.506c-1.466,0.812-2.964,1.563-4.483,2.269
	C39.446,124.49,38.006,124.552,36.857,123.039z"/>
<path style="fill-rule:evenodd;clip-rule:evenodd;fill:#FCD6BE;" d="M122.637,96.486c1.547-0.139,3.041-0.11,4.103,1.294
	c1.32,0.678,1.383,1.933,1.331,3.149c-0.189,4.445-0.047,8.904-0.532,13.337c-0.037,0.334-0.01,0.675-0.062,1.01
	c-0.293,1.896-1.677,3.258-3.311,3.258c-1.565-0.001-2.437-0.904-2.914-3.022c-0.037-5.494-0.016-10.986-0.011-16.479
	C121.241,97.938,121.171,96.786,122.637,96.486z"/>
<path style="fill-rule:evenodd;clip-rule:evenodd;fill:#FBC1A6;" d="M121.841,115.668c0.2,1.521,1.155,2.436,2.591,2.218
	c1.418-0.215,2.269-1.238,2.322-2.864c0.157-4.77,0.444-9.535,0.588-14.305c0.029-0.978-0.114-2.018-0.603-2.937
	c0.538,0.02,1.076,0.039,1.614,0.059c1.152,0.134,1.397,0.904,1.315,1.892c-0.389,4.654,0.445,9.361-0.605,13.988
	c-0.123,0.542,0.104,1.066,0.246,1.592c0.202,0.746,0.631,1.248,1.425,1.155c0.694-0.081,1.32-0.413,1.409-1.231
	c0.088-0.81,0.43-1.609,0.423-2.384c-0.04-4.347,1.38-8.567,1.063-12.93c-0.035-0.491,0.089-0.942,0.461-1.297
	c1.048,0.828,2.396,0.684,3.57,1.101c-1.26,1.072-1.612,2.498-1.796,4.083c-0.313,2.689-0.111,5.393-0.345,8.083
	c-0.063,0.726-0.157,1.854,0.965,1.917c1.093,0.063,1.141-1.079,1.252-1.797c0.384-2.466,0.855-4.917,1.229-7.385
	c0.112-0.743-0.002-1.678,1.084-1.887c0.348,1.703-0.36,3.486,0.396,5.157c-1.076,0.538-0.652,1.542-0.655,2.352
	c-0.007,1.605-0.296,3.105-1.28,4.395c-0.888,1.165-1.97,1.924-3.484,1.084c-0.964-0.533-1.147-0.072-1.508,0.784
	c-1.038,2.465-2.402,2.929-4.8,1.67c-0.796-0.418-1.248-0.26-1.743,0.304c-1.545,1.763-3.44,1.958-5.542,1.257
	c-0.302-0.221-0.471-0.521-0.539-0.883c-0.016-1.045-0.291-2.117,0.316-3.099C121.396,115.566,121.606,115.537,121.841,115.668z"/>
<path style="fill-rule:evenodd;clip-rule:evenodd;fill:#FDD7BE;" d="M134.09,98.624c0.998,3.878-0.19,7.652-0.566,11.461
	c-0.166,1.678-0.489,3.339-0.686,5.015c-0.153,1.311-1.009,1.965-2.147,2.067c-1.163,0.105-1.769-0.711-2.109-1.811
	c-0.344-1.109,0.023-2.129,0.104-3.198c0.34-4.457-0.3-8.944,0.383-13.397c0.07-0.459-0.438-0.641-0.714-0.922
	C130.323,97.684,132.287,97.559,134.09,98.624z"/>
<path style="fill-rule:evenodd;clip-rule:evenodd;fill:#FCCDB5;" d="M45.252,121.013c0.141-0.153,0.282-0.307,0.423-0.461
	c0.947,0.627,1.686-0.14,2.458-0.425c2.366-0.873,4.243-0.345,5.232,1.572c0.93,1.803,0.15,3.805-1.95,5.127
	c-2.009,1.264-4.229,2.161-6.139,3.593c-0.172,0.11-0.359,0.19-0.553,0.252c-0.292,0.087-0.6,0.083-0.895,0.156
	c-1.374,0.451-2.75,0.964-4.104-0.053c-0.991-1.105-1.75-2.295-1.406-3.884c-0.084-0.413-0.326-0.786-0.311-1.225
	c0.209-1.247,1.346-1.367,2.207-1.842C41.899,122.896,44.003,122.718,45.252,121.013z"/>
<path style="fill-rule:evenodd;clip-rule:evenodd;fill:#FBCCB5;" d="M37.513,113.714c-1.526-2.378-1.146-4.368,1.237-5.658
	c1.935-1.047,3.981-1.888,5.953-2.87c1.279-0.637,2.533-0.741,3.829-0.111c0.103,0.025,0.207,0.05,0.311,0.074
	c1.455,1.61,1.478,3.261-0.066,4.69c-1.178,1.09-2.515,1.989-4.042,2.556c-1.299,0.645-2.609,1.256-3.957,1.806
	C39.505,114.719,38.484,114.67,37.513,113.714z"/>
<path style="fill-rule:evenodd;clip-rule:evenodd;fill:#FCD6BE;" d="M140.049,102.739c-0.573,3.23-1.126,6.466-1.73,9.69
	c-0.21,1.116-0.379,2.494-1.955,2.332c-1.534-0.157-1.497-1.467-1.495-2.651c0.006-3.434-0.016-6.86,0.382-10.287
	c0.186-1.593,1.046-2.046,2.411-2.098C139.248,100.102,139.857,101.255,140.049,102.739z"/>
<path style="fill-rule:evenodd;clip-rule:evenodd;fill:#FDD7BF;" d="M118.994,95.301c-0.669,1.85-2.125,2.593-3.949,2.583
	c-2.03-0.012-3.404-1.123-4.207-2.963c-0.345-0.459-0.331-0.917,0.008-1.373c2.014-3.215,5.332-3.901,7.789-1.609
	C119.129,93.019,120.243,94.034,118.994,95.301z"/>
<path style="fill-rule:evenodd;clip-rule:evenodd;fill:#FCCDB5;" d="M44.502,130.329c0.111,0,0.223,0,0.334,0
	c0.531,0.711,1.057,0.924,2.018,0.541c2.701-1.074,4.32-0.684,5.127,0.993c0.788,1.638-0.042,3.267-2.591,4.538
	c-1.447,0.722-2.646,2.243-4.576,1.708c-1.888,0.746-3.626,0.899-4.789-1.215c-0.343-1.427,0.374-2.742,0.436-4.126
	c1.161,0.21,2.146-0.119,2.957-0.968C43.878,131.383,43.867,130.614,44.502,130.329z"/>
<path style="fill-rule:evenodd;clip-rule:evenodd;fill:#D7EAF3;" d="M12.344,169.399c-4.091,0.006-8.182,0.012-12.273,0.019
	c-0.003-3.979-0.016-7.959,0-11.938c0.002-0.647-0.206-1.368,0.408-1.895c0.95,0.7,1.248,1.624,1.215,2.805
	c-0.075,2.693,0.026,5.391-0.047,8.083c-0.031,1.138,0.309,1.553,1.472,1.513c2.221-0.075,4.447,0.017,6.668-0.045
	C10.984,167.908,11.905,168.183,12.344,169.399z"/>
<path style="fill-rule:evenodd;clip-rule:evenodd;fill:#DBEFF8;" d="M0.085,0.411C3.334,0.409,6.583,0.4,9.831,0.414
	c0.724,0.003,1.512-0.18,2.087,0.491c-0.325,0.921-1.1,0.834-1.845,0.833c-2.088-0.004-4.188,0.137-6.26-0.042
	c-1.875-0.163-2.276,0.551-2.171,2.27C1.79,6.38,1.621,8.814,1.702,11.236c0.042,1.249-0.267,2.239-1.268,2.993
	c-0.711-0.974-0.332-2.086-0.345-3.127C0.043,7.539,0.08,3.974,0.085,0.411z"/>
<path style="fill-rule:evenodd;clip-rule:evenodd;fill:#D9EDF6;" d="M164.186,0.855c0.944-0.808,2.074-0.4,3.118-0.43
	c2.228-0.063,4.461,0.046,6.687-0.042c1.438-0.057,2.086,0.341,2.039,1.917c-0.097,3.24-0.024,6.485-0.032,9.728
	c-0.002,0.664,0.114,1.373-0.509,1.873c-0.924-0.543-1.15-1.374-1.134-2.4c0.045-2.767-0.038-5.537,0.042-8.303
	c0.033-1.166-0.342-1.522-1.487-1.482c-2.226,0.077-4.455,0.019-6.683,0.024C165.412,1.742,164.569,1.833,164.186,0.855z"/>
<path style="fill-rule:evenodd;clip-rule:evenodd;fill:#EEEDED;" d="M101.515,94.437c-1.99,0.944-4.092,0.239-6.134,0.417
	c0.375-1.923,2.629-4.05,4.76-4.491C101.431,91.439,101.736,92.849,101.515,94.437z"/>
<path style="fill-rule:evenodd;clip-rule:evenodd;fill:#B7D4DD;" d="M65.199,100.935c0.822,0.984,1.644,1.968,2.466,2.952
	c0.02,0.291-0.07,0.602-0.336,0.669c-2.05,0.517-4.115,0.47-6.171,0.031c-0.267-0.057-0.377-0.358-0.387-0.647
	C62.248,102.937,63.724,101.936,65.199,100.935z"/>
<path style="fill-rule:evenodd;clip-rule:evenodd;fill:#E7AA8E;" d="M121.442,115.667c-0.004,1.088-0.009,2.178-0.013,3.267
	c-0.335,0.255-0.65,0.223-0.949-0.063c-0.114-0.217-0.163-0.447-0.147-0.692c0.208-6.012,0.018-12.025,0.097-18.038
	c0.01-0.239,0.028-0.478,0.056-0.716c0.315-1.277-0.097-2.486-0.347-3.709c0.619-0.595,1.188-0.24,1.758,0.094l-0.026,0.075
	c-0.491,5.857-0.105,11.726-0.239,17.588C121.614,114.203,121.813,114.961,121.442,115.667z"/>
<path style="fill-rule:evenodd;clip-rule:evenodd;fill:#F4B096;" d="M44.057,132.39c-1.176,0.337-2.179,2.322-3.596,0.378
	c0.027-0.766-0.498-1.327-0.736-1.994c1.512,0.064,2.966-0.169,4.339-0.829C44.36,130.76,44.372,131.576,44.057,132.39z"/>
<path style="fill-rule:evenodd;clip-rule:evenodd;fill:#F6B197;" d="M45.252,121.013c0.108,1.015-0.502,1.375-1.349,1.713
	c-1.879,0.75-3.814,1.409-5.454,2.659c-0.984-0.096-0.858-1.065-1.27-1.612c-0.108-0.245-0.215-0.49-0.322-0.734
	c2.072,1.252,3.86,0.24,5.667-0.694C43.422,121.879,44.342,121.456,45.252,121.013z"/>
<path style="fill-rule:evenodd;clip-rule:evenodd;fill:#ACCADE;" d="M60.771,103.939c2.302,0.502,4.601,0.595,6.894-0.053
	c0.13-0.008,0.26-0.011,0.391-0.011c0.62,0.324,0.682,0.714,0.139,1.178c-0.462,0.313-0.981,0.435-1.529,0.431
	c-5.104-0.037-10.186,0.688-15.298,0.445c-0.967-0.046-1.862-0.185-2.679-0.711c-0.058-0.042-0.111-0.089-0.158-0.144
	c2.915-0.722,5.875-0.205,8.812-0.289C58.585,104.75,59.729,104.633,60.771,103.939z"/>
<path style="fill-rule:evenodd;clip-rule:evenodd;fill:#F7CAB3;" d="M121.442,115.667c-0.009-5.535-0.014-11.07-0.03-16.605
	c-0.003-1.085,0.012-2.161,0.458-3.178c0.256,0.201,0.512,0.402,0.767,0.603c-0.795,0.701-0.808,1.623-0.804,2.59
	c0.02,5.531,0.009,11.062,0.008,16.592C121.708,115.667,121.575,115.667,121.442,115.667z"/>
<path style="fill-rule:evenodd;clip-rule:evenodd;fill:#F5B096;" d="M37.513,113.714c2.669,0.833,4.77-0.646,6.972-1.714
	c0.229,0.237,0.224,0.487,0.039,0.746c-1.783,1.533-4.06,2.015-6.154,2.884C38.063,115,37.536,114.47,37.513,113.714z"/>
<path style="fill-rule:evenodd;clip-rule:evenodd;fill:#FAD7C5;" d="M100.141,90.362c-1.732,1.343-3.425,2.729-4.76,4.492
	c-0.813,0-1.626,0.001-2.438,0.002c-0.051-0.083-0.102-0.165-0.153-0.247c0.046-0.191,0.139-0.356,0.276-0.496
	c1.666-1.261,3.479-2.333,4.974-3.823c0.381-0.38,0.813-0.725,1.413-0.685c0.212,0.1,0.424,0.199,0.636,0.298
	C100.105,90.056,100.123,90.208,100.141,90.362z"/>
<path style="fill-rule:evenodd;clip-rule:evenodd;fill:#946C51;" d="M86.442,13.42c-4.104,0.005-8.208,0.016-12.313,0.011
	c-0.66-0.001-1.356,0.135-1.943-0.331c4.32-0.022,8.642-0.047,12.962-0.063C85.61,13.035,86.108,12.965,86.442,13.42z"/>
<path style="fill-rule:evenodd;clip-rule:evenodd;fill:#F7CAB3;" d="M121.896,95.808c-0.586-0.031-1.171-0.063-1.757-0.094
	c-0.383-0.138-0.764-0.275-1.146-0.413c0.12-1.146-0.171-2.25-0.359-3.363C119.96,93.027,121.234,94.16,121.896,95.808z"/>
<path style="fill-rule:evenodd;clip-rule:evenodd;fill:#98603D;" d="M110.079,55.003c-1.105-2.019-0.503-3.779,1.544-4.509
	c-0.014,0.278-0.028,0.557-0.043,0.835C111.08,52.554,110.579,53.778,110.079,55.003z"/>
<path style="fill-rule:evenodd;clip-rule:evenodd;fill:#955F3E;" d="M54.281,7.244c-0.466,0.691-0.274,1.341,0.082,2.011
	c0.316,0.595,0.349,1.14-0.492,1.333c-0.324-0.882-0.632-1.771-0.977-2.645c-0.223-0.566-0.604-1.292,0.026-1.617
	C53.562,5.994,53.903,6.8,54.281,7.244z"/>
<path style="fill-rule:evenodd;clip-rule:evenodd;fill:#945A37;" d="M112.818,45.613c-1.08-1.283-1.078-5.236,0.003-6.509
	C112.82,41.274,112.819,43.444,112.818,45.613z"/>
<path style="fill-rule:evenodd;clip-rule:evenodd;fill:#955C3A;" d="M46.019,20.466c0.05-0.393,0.101-0.786,0.179-1.39
	c0.582,1.53,1.089,2.858,1.593,4.187c0.267,0.703,0.549,1.409-0.099,2.069l0.017-0.045c-0.378-0.571-0.626-1.226-1.111-1.729
	C46.404,22.527,46.211,21.497,46.019,20.466z"/>
<path style="fill-rule:evenodd;clip-rule:evenodd;fill:#935935;" d="M111.724,35.704c-0.095,0.155-0.188,0.31-0.282,0.464
	c-0.49-1.288-1.353-2.516-0.634-3.995c0.343,0.204,0.197,0.666,0.478,0.902C111.432,33.951,111.577,34.827,111.724,35.704z"/>
<path style="fill-rule:evenodd;clip-rule:evenodd;fill:#DDDEDE;" d="M37.179,123.773c0.423,0.538,0.846,1.075,1.27,1.613
	c-0.043,0.501-0.087,1.002-0.13,1.504C37.552,125.993,37.041,125.001,37.179,123.773z"/>
<path style="fill-rule:evenodd;clip-rule:evenodd;fill:#D9BBAD;" d="M72.15,91.13c-0.119,0.022-0.239,0.039-0.36,0.049
	c-0.003-1.617-0.007-3.232-0.011-4.849c0.13,0.148,0.261,0.296,0.391,0.445c0.484,1.11,0.995,2.215,0.604,3.478
	C72.658,90.612,72.473,90.92,72.15,91.13z"/>
<path style="fill-rule:evenodd;clip-rule:evenodd;fill:#F5AF95;" d="M100.058,88.925c-0.37-1.059-0.34-2.118-0.003-3.174
	C100.234,86.811,100.233,87.868,100.058,88.925z"/>
<path style="fill-rule:evenodd;clip-rule:evenodd;fill:#867668;" d="M49.754,13.433c0.13,0.722,0.26,1.444,0.391,2.167
	c-0.5-0.646-0.86-1.34-0.742-2.196c0.009-0.066-0.007-0.165,0.03-0.193C49.748,12.972,49.676,13.313,49.754,13.433z"/>
<path style="fill-rule:evenodd;clip-rule:evenodd;fill:#77716B;" d="M111.285,33.075c-0.159-0.301-0.318-0.602-0.478-0.902
	c-0.109-0.573-0.219-1.146-0.328-1.721C111.447,31.111,111.2,32.144,111.285,33.075z"/>
<path style="fill-rule:evenodd;clip-rule:evenodd;fill:#A17052;" d="M50.479,19.984c-0.851-0.21-1.384-0.731-1.562-1.599
	C49.573,18.787,50.102,19.312,50.479,19.984z"/>
<path style="fill-rule:evenodd;clip-rule:evenodd;fill:#465558;" d="M53.93,21.591c0.243,0.109,0.529,0.351,0.366,0.546
	c-0.485,0.581-0.865-0.026-1.277-0.213C53.322,21.813,53.626,21.702,53.93,21.591z"/>
<path style="fill-rule:evenodd;clip-rule:evenodd;fill:#A97E65;" d="M46.598,23.558c0.868,0.256,0.937,1.026,1.111,1.729
	C47.065,24.886,46.864,24.201,46.598,23.558z"/>
<path style="fill-rule:evenodd;clip-rule:evenodd;fill:#D3D7D9;" d="M110.846,93.547c-0.003,0.458-0.005,0.915-0.008,1.373
	c-0.394-0.054-0.712-0.227-0.916-0.58C110.04,93.854,110.411,93.665,110.846,93.547z"/>
<path style="fill-rule:evenodd;clip-rule:evenodd;fill:#918174;" d="M57.443,48.352c0.393,0.683,0.486,1.43,0.477,2.2
	C57.523,49.871,56.939,49.229,57.443,48.352z"/>
<path style="fill-rule:evenodd;clip-rule:evenodd;fill:#9D6A4A;" d="M89.713,13.829c-0.698-0.034-1.439,0.199-2.056-0.337
	C88.359,13.502,89.118,13.164,89.713,13.829z"/>
<path style="fill-rule:evenodd;clip-rule:evenodd;fill:#F5AF95;" d="M72.176,90.358c-0.002-1.194-0.004-2.389-0.006-3.583
	c3.64,3.665,7.862,6.04,13.186,6.091c4.915,0.047,9.078-1.664,12.532-5.145c0.369-0.373,0.779-0.704,1.564-1.407
	c0,1.365,0,2.327,0,3.29c-1.724,2.228-3.828,3.949-6.513,4.9c-3.144-0.528-6.312-0.021-7.997-0.157
	c1.688,0.101,4.856-0.352,8.003,0.158c0.001,0.116,0,0.233-0.004,0.349c-3.237,0.014-6.476,0.033-9.713,0.04
	c-0.88,0.001-1.76-0.031-2.559,0.432c-1.103,0.758-2.073,0.139-3-0.359C75.524,93.818,73.727,92.23,72.176,90.358z"/>
<path style="fill-rule:evenodd;clip-rule:evenodd;fill:#97603D;" d="M89.685,39.146c0.185-0.54-1.088-1.077-0.121-1.52
	c0.789-0.362,1.274-1.573,2.447-0.988c0.195,0.097,0.669,0.041,0.384,0.418c-0.863,1.144,0.033,0.866,0.485,0.549
	c1.985-1.391,4.335-0.894,6.496-1.281c1.756-0.314,3.977,2.849,3.472,4.608c-0.032,0.111-0.189,0.186-0.289,0.277
	c-0.1-0.139-0.199-0.277-0.299-0.416c-0.133-0.374-0.245-0.763-0.686-0.903c-2.417-2.525-5.17-3.131-8.429-1.686
	C92.073,38.682,90.937,39.199,89.685,39.146z"/>
<path style="fill-rule:evenodd;clip-rule:evenodd;fill:#F6B196;" d="M83.85,78.718c3.318-0.358,6.006-1.864,8.641-3.499
	c0.322-0.2,0.697-0.581,1.069-0.223c0.334,0.322,0.117,0.756-0.071,1.118C92.139,78.697,86.725,80.242,83.85,78.718z"/>
<path style="fill-rule:evenodd;clip-rule:evenodd;fill:#9C6543;" d="M107.193,57.021c0.741,0.655,0.053,1.766,0.772,2.428
	c-0.184,0.437-0.485,1.08-0.738,0.146C107.01,58.793,107.189,57.884,107.193,57.021z"/>
<path style="fill-rule:evenodd;clip-rule:evenodd;fill:#975F3E;" d="M101.574,39.892c1.14-0.391,0.952,0.227,0.686,0.903
	C102.031,40.494,101.803,40.193,101.574,39.892z"/>
<path style="fill-rule:evenodd;clip-rule:evenodd;fill:#8F5734;" d="M83.162,39.88c0.667-0.523,1.337-0.519,2.009-0.01
	C84.502,39.873,83.832,39.876,83.162,39.88z"/>
<path style="fill-rule:evenodd;clip-rule:evenodd;fill:#8F5734;" d="M87.724,39.553c-0.245-0.136-0.885-0.128-0.726-0.278
	c0.409-0.385,0.989-0.201,1.432,0.189C88.194,39.494,87.959,39.523,87.724,39.553z"/>
<path style="fill-rule:evenodd;clip-rule:evenodd;fill:#FFFFFF;" d="M44.523,112.747c-0.013-0.248-0.026-0.497-0.039-0.746
	c0.896-0.592,1.795-1.178,2.688-1.775c2.393-1.6,2.619-2.351,1.516-5.007c0.672-0.029,1.347-0.107,2.016-0.079
	c5.927,0.25,11.823-0.569,17.745-0.492c0.359-0.464,0.854-0.39,1.343-0.335c2.497,0.342,5.008,0.111,7.512,0.146
	c1.43,0.021,2.068,0.49,2.01,2.045c-0.108,2.911,0.027,5.831-0.057,8.743c-0.039,1.384,0.361,2.674,0.526,4.01
	c0.143,1.152,1.064,1.46,2.086,1.533c5.216-0.057,10.428-0.004,15.64-0.035c1.547-0.009,2.368,0.442,2.362,2.201
	c-0.044,12.727-0.013,25.453-0.029,38.179c-0.001,0.34-0.031,0.676-0.137,1.002c-0.336,0.737-1.008,0.564-1.595,0.565
	c-17.365,0.006-34.729,0.006-52.095,0.001c-0.397,0-0.823,0.084-1.149-0.258c-0.017-8.112-0.034-16.225-0.052-24.337
	c1.725-0.937,3.461-1.855,5.172-2.818c1.201-0.676,2.183-1.583,1.482-3.097c-0.703-1.521-1.961-1.701-3.415-1.026
	c-0.428,0.199-0.91,0.287-1.329,0.5c-1.507,0.768-2.094,0.286-1.89-1.338c0.076-0.889,0.774-1.18,1.436-1.529
	c1.665-0.882,3.324-1.773,4.973-2.685c1.662-0.919,2.334-2.559,1.685-4.027c-0.706-1.598-2.379-2.165-4.234-1.431
	c-0.688,0.272-1.368,0.566-2.057,0.836c-1,0.391-0.957-0.304-0.963-0.94c2.018-1.073,4.054-2.112,6.047-3.229
	c1.994-1.117,2.59-2.621,1.815-4.313c-0.804-1.756-2.171-2.179-4.423-1.581C47.574,111.837,46.24,112.968,44.523,112.747z"/>
<path style="fill-rule:evenodd;clip-rule:evenodd;fill:#FFFFFF;" d="M100.562,120.935l-0.173-0.018l-0.175,0.004
	c-6.229,0.098-12.459,0.008-18.689,0.045c-1.381-0.444-1.977-1.353-2.087-2.84c-0.336-4.502-0.034-9.004-0.149-13.505
	c-0.813-4.937-0.727-5.042,4.139-5.042c11.673,0,23.346,0.033,35.019-0.037c1.696-0.01,2.254,0.483,2.202,2.174
	c-0.175,5.694,0.189,11.396-0.199,17.088c0.158,1.771-1.058,2.273-2.411,2.301c-3.444,0.068-6.902,0.285-10.326-0.332
	C105.329,120.839,102.938,120.551,100.562,120.935z"/>
<path style="fill-rule:evenodd;clip-rule:evenodd;fill:#E2E2E2;" d="M81.522,120.556c5.377,0.001,10.754,0,16.131,0.003
	c0.87,0,1.754-0.087,2.562,0.363c0.012,0.408,0.024,0.817,0.037,1.226c-0.378,0.704-0.188,1.465-0.19,2.196
	c-0.026,12.474,0.019,24.947-0.029,37.422c-0.053,0.316-0.235,0.436-0.547,0.357c-0.013-12.721-0.068-25.442,0.008-38.162
	c0.012-2.027-0.494-2.713-2.595-2.632c-4.257,0.163-8.523,0.048-12.787,0.048c-0.877,0-1.767-0.079-2.573,0.389
	c-0.391-0.299-1.004-0.5-0.798-1.138C80.849,120.293,81.231,120.297,81.522,120.556z"/>
<path style="fill-rule:evenodd;clip-rule:evenodd;fill:#AACBDB;" d="M99.485,162.124c0.124-0.007,0.248-0.016,0.372-0.027
	c0.129-0.263,0.26-0.264,0.393-0.003c-0.464,0.907-1.313,0.816-2.124,0.816c-17.122,0.001-34.244,0.002-51.366-0.005
	c-0.659,0-1.374,0.152-1.893-0.459c17.622,0.008,35.243,0.018,52.865,0.022C98.335,162.469,98.964,162.555,99.485,162.124z"/>
<path style="fill-rule:evenodd;clip-rule:evenodd;fill:#A6C6DC;" d="M100.25,162.093c-0.131,0.002-0.262,0.003-0.393,0.003
	c-0.004-12.605-0.01-25.212-0.003-37.817c0-0.725-0.197-1.507,0.397-2.13C100.251,135.463,100.251,148.778,100.25,162.093z"/>
<path style="fill-rule:evenodd;clip-rule:evenodd;fill:#E6BCA7;" d="M107.626,120.598c3.238-0.007,6.478-0.013,9.717-0.02
	c1.264-0.003,2.47-0.108,2.899-1.61c0.072-0.287,0.185-0.304,0.337-0.05c0.283,0.005,0.567,0.01,0.851,0.015
	c0.001,0.269,0.001,0.538,0.002,0.808c-1.456,1.967-3.479,2.184-5.74,2.08c-1.581-0.072-3.229-0.403-4.781,0.292
	c-0.608,0.081-1.17,0.067-1.366-0.68c2.681-0.606,5.396-0.077,8.088-0.265c0.272,0.009-0.125-0.414,0.009-0.178
	c-2.916,0.472-5.868-0.103-8.786,0.312c-0.403-0.12-0.807-0.24-1.211-0.361C107.337,120.842,107.33,120.728,107.626,120.598z"/>
<path style="fill-rule:evenodd;clip-rule:evenodd;fill:#E3B198;" d="M108.854,121.302c3.179-0.737,6.375-0.145,9.566,0.13
	c-2.959,0-5.918,0-8.877,0C109.314,121.389,109.084,121.346,108.854,121.302z"/>
<path style="fill-rule:evenodd;clip-rule:evenodd;fill:#AFCAE5;" d="M107.626,120.598c-0.007,0.115-0.001,0.229,0.018,0.343
	c-2.359-0.002-4.72-0.004-7.081-0.005C102.883,120.117,105.269,120.661,107.626,120.598z"/>
<path style="fill-rule:evenodd;clip-rule:evenodd;fill:#AACDE1;" d="M129.008,134.129c-0.414,0.343-0.852,0.313-1.301,0.158
	C128.08,133.697,128.575,134.171,129.008,134.129z"/>
<path style="fill-rule:evenodd;clip-rule:evenodd;fill:#EAEAEA;" d="M120.579,118.918c-0.113,0.01-0.226,0.026-0.338,0.049
	c-0.01-5.563-0.098-11.129,0.011-16.69c0.038-1.927-0.477-2.558-2.482-2.543c-11.874,0.09-23.749,0.044-35.624,0.045
	c-2.707,0-3.02,0.373-2.597,3.092c0.094,0.6,0.225,1.194,0.339,1.791c-3.392,0.369-6.783,0.315-10.176,0.013
	c-0.421-0.009-0.842-0.019-1.263-0.027c-0.131-0.258-0.263-0.516-0.394-0.772c2.534-0.007,5.069-0.011,7.604-0.021
	c2.853-0.012,2.995-0.163,3.018-2.937c0.009-1.068-0.173-2.167,0.399-3.167c0.158-0.177,0.289-0.15,0.397,0.052
	c-0.143,1.694,1.012,1.567,2.14,1.566c12.145-0.01,24.289-0.007,36.434-0.003c0.813,0,1.627,0.038,2.439,0.058
	c-0.001,0,0.122-0.049,0.122-0.049c0.478,1.583,0.207,3.205,0.193,4.802c-0.042,4.773,0.233,9.55-0.148,14.318
	C120.629,118.636,120.604,118.777,120.579,118.918z"/>
<path style="fill-rule:evenodd;clip-rule:evenodd;fill:#FACCB4;" d="M79.474,97.803c-0.131-0.025-0.264-0.043-0.397-0.052
	c-1.98-2.549-4.706-4.318-6.926-6.619c0.009-0.258,0.017-0.515,0.025-0.772c2.182,1.376,3.925,3.4,6.425,4.316
	c0.683,0.25,1.307,0.665,2.07,0.654C80.271,96.153,79.872,96.978,79.474,97.803z"/>
<path style="fill-rule:evenodd;clip-rule:evenodd;fill:#FEE2CE;" d="M50.995,112.048c0.939,0.042,1.551,0.639,1.592,1.768
	c0.038,1.06-2.397,3.113-3.644,3.017c-1.391-0.108-1.591-1.368-1.89-2.345C46.782,113.597,49.161,112.108,50.995,112.048z"/>
<path style="fill-rule:evenodd;clip-rule:evenodd;fill:#FEE3CF;" d="M122.655,114.819c0.007-1.244-0.096-2.363,1.42-2.381
	c1.35-0.016,1.433,0.929,1.44,1.948c0.009,1.157-0.123,2.334-1.531,2.417C122.433,116.893,122.733,115.568,122.655,114.819z"/>
<path style="fill-rule:evenodd;clip-rule:evenodd;fill:#FEE2CE;" d="M132.02,114.37c-0.014,0.511-0.198,1.637-1.527,1.555
	c-1.152-0.071-1.311-1.131-1.322-2.139c-0.014-1.12,0.362-1.786,1.61-1.782C132.124,112.007,132.027,112.921,132.02,114.37z"/>
<path style="fill-rule:evenodd;clip-rule:evenodd;fill:#FEE2CF;" d="M52.088,123.05c-0.66,1.107-1.539,2.132-2.973,2.323
	c-1.231,0.165-1.79-0.888-1.704-1.803c0.158-1.679,1.741-1.866,3.019-2.126C51.427,121.242,51.813,122.06,52.088,123.05z"/>
<path style="fill-rule:evenodd;clip-rule:evenodd;fill:#F5A688;" d="M44.057,132.39c0.002-0.815,0.004-1.631,0.007-2.445
	c0.146,0.128,0.292,0.256,0.438,0.384C44.357,131.016,44.659,131.801,44.057,132.39z"/>
<path style="fill-rule:evenodd;clip-rule:evenodd;fill:#FEE3CF;" d="M48.116,106.842c0.053,1.042-1.767,3.015-2.917,3.008
	c-1.275-0.008-1.877-1.095-1.835-2.05c0.08-1.826,1.864-1.864,3.131-2.249C47.387,105.281,48.071,105.787,48.116,106.842z"/>
<path style="fill-rule:evenodd;clip-rule:evenodd;fill:#FEE2CF;" d="M135.33,112.508c-0.1-1.21,0.206-1.74,1.214-1.723
	c0.886,0.015,1.218,0.466,1.167,1.281c-0.051,0.824-0.099,1.789-1.146,1.861C135.44,114.005,135.472,112.963,135.33,112.508z"/>
<path style="fill-rule:evenodd;clip-rule:evenodd;fill:#FEE2CF;" d="M50.891,132.77c-0.369,1.264-1.416,2.012-2.585,2.217
	c-1.088,0.19-1.545-1.121-1.438-1.802c0.207-1.326,1.583-1.434,2.679-1.595C50.281,131.483,50.863,131.827,50.891,132.77z"/>
<path style="fill-rule:evenodd;clip-rule:evenodd;fill:#DFA386;" d="M120.653,118.495c-0.015-6.373-0.03-12.746-0.045-19.12
	c0.379,0.362,0.413,0.832,0.413,1.314c-0.001,5.559,0.005,11.119-0.019,16.677C121.002,117.743,120.775,118.119,120.653,118.495z"/>
<path style="fill-rule:evenodd;clip-rule:evenodd;fill:#F3A98E;" d="M92.945,94.507c-3.613,0-7.227,0-10.839,0
	c3.555-0.687,7.143-0.094,10.693-0.642c0.328-0.051,0.179,0.399,0.14,0.641L92.945,94.507z"/>
<path style="fill-rule:evenodd;clip-rule:evenodd;fill:#F7F7F7;" d="M69.712,104.675c3.392-0.004,6.784-0.009,10.176-0.013
	c0.002,4.104,0.067,8.208-0.027,12.31c-0.035,1.554,0.307,2.759,1.662,3.584c-1.264,0.419,0.153,0.805,0.016,1.21
	c-2.985-0.849-2.654-3.486-2.809-5.645c-0.222-3.102-0.182-6.238-0.003-9.346c0.091-1.584-0.48-1.792-1.799-1.722
	c-1.757,0.093-3.523,0.032-5.285,0.018C70.979,105.067,70.271,105.212,69.712,104.675z"/>
<path style="fill-rule:evenodd;clip-rule:evenodd;fill:#1D414E;" d="M73.952,151.134c-0.115,1.019,0.034,2.092-0.9,2.8
	c-0.888,0.674-1.764,0.557-2.541-0.172c-0.997-0.935-1.135-4.001-0.193-5.129c0.652-0.782,1.478-1.12,2.482-0.5
	C73.978,148.862,73.834,150.058,73.952,151.134z"/>
<path style="fill-rule:evenodd;clip-rule:evenodd;fill:#1B404D;" d="M86.11,136.989c-0.628,1.355-2.317-0.162-2.524,1.327
	c-0.248,1.779,1.562,0.58,2.161,1.368c0.502,0.659,0.791,1.252,0.646,2.019c-0.191,1.002-0.978,1.456-1.871,1.622
	c-0.766,0.142-1.585,0.145-2.396-0.79c0.901,0,1.52,0.011,2.137-0.003c0.734-0.018,1.156-0.471,1.193-1.14
	c0.036-0.658-0.316-1.339-1.038-1.232c-2.162,0.317-1.811-1.072-1.717-2.338c0.135-1.836,1.542-0.663,2.324-0.958
	C85.29,136.764,85.653,136.927,86.11,136.989z"/>
<path style="fill-rule:evenodd;clip-rule:evenodd;fill:#20424F;" d="M69.229,131.51c-0.148,1.04-0.944,0.912-1.607,0.794
	c-0.665-0.118-1.037-0.667-1-1.334c0.037-0.655,0.402-1.121,1.124-1.219c0.193-0.026,0.377-0.135,0.561-0.216
	c0.43-0.191,1.3,0.299,1.272-0.486c-0.034-0.956-0.907-0.764-1.572-0.685c-0.253,0.029-0.518,0.154-0.747-0.304
	c0.742-0.67,1.59-0.788,2.495-0.371c0.803,0.369,0.849,1.123,0.822,1.899c-0.028,0.868-0.006,1.737-0.006,2.618
	c-0.685,0.097-1.037-0.295-1.411-0.642l-0.065-0.152L69.229,131.51z"/>
<path style="fill-rule:evenodd;clip-rule:evenodd;fill:#234451;" d="M64.41,142.919c-1.444,0.878-2.815,0.588-3.766-0.648
	c-1.032-1.341-1.032-2.993-0.001-4.334c0.95-1.237,2.321-1.528,3.766-0.65c0.102,0.341-0.083,0.553-0.327,0.74
	c-0.794,0.485-1.983,0.397-2.143,1.773c-0.196,1.697,1.049,1.93,2.145,2.374C64.331,142.362,64.512,142.58,64.41,142.919z"/>
<path style="fill-rule:evenodd;clip-rule:evenodd;fill:#193E4C;" d="M61.204,131.133c-0.631-1-0.565-2.324-1.49-3.351
	c-0.343,1.598,0.214,3.143-0.356,4.556c-0.211,0.006-0.422,0.011-0.632,0.017c0-2.005-0.006-4.011,0.004-6.016
	c0.002-0.46,0.348-0.502,0.704-0.487c0.403,0.017,0.799-0.004,0.933,0.541c0.35,1.436,1.185,2.729,1.247,4.251
	C61.771,131.053,61.563,131.157,61.204,131.133z"/>
<path style="fill-rule:evenodd;clip-rule:evenodd;fill:#485D68;" d="M80.136,140.282c-0.375,0.878,0.78,2.662-0.655,2.868
	c-0.743,0.107-0.031-2.012-0.458-2.977c-0.193-0.437,1.221-2.416-1.015-1.363c-0.048,0.022-0.374-0.345-0.345-0.392
	c0.452-0.734,1.065-1.43,1.908-1.523c0.853-0.094,0.51,0.754,0.55,1.211C80.18,138.773,80.136,139.448,80.136,140.282z"/>
<path style="fill-rule:evenodd;clip-rule:evenodd;fill:#425964;" d="M81.14,131.869c-0.646,0.545-1.18,0.823-1.169-0.435
	c0.014-1.627-0.01-3.255,0.012-4.881c0.006-0.432-0.177-1.07,0.544-1.093c0.74-0.023,0.514,0.615,0.579,1.046
	c0.072,0.48-0.349,1.117,0.42,1.388c0.142,0.125,0.246,0.275,0.317,0.45c0.081,1.014,0.041,2.024-0.067,3.035
	C81.663,131.672,81.437,131.818,81.14,131.869z"/>
<path style="fill-rule:evenodd;clip-rule:evenodd;fill:#2D4B57;" d="M88.999,126.11c0.099,1.036,0.72,1.449,1.674,1.561
	c-1.969,1.344-1.976,3.305-0.19,4.228c-1.311,0.626-1.972,0.583-2.082-0.397C88.206,129.786,87.17,127.917,88.999,126.11z"/>
<path style="fill-rule:evenodd;clip-rule:evenodd;fill:#244552;" d="M81.062,151.36c-0.795-1.146-1.728-2.329,0.13-3.334
	c0.871-0.471,1.781-0.244,2.403,0.467c0.691,0.792,0.547,1.609-0.361,2.224c-0.443,0.283-0.213,1.001-0.777,1.21
	c-0.489,0.235-0.979,0.359-1.462-0.016C80.866,151.709,80.889,151.526,81.062,151.36z"/>
<path style="fill-rule:evenodd;clip-rule:evenodd;fill:#1E414F;" d="M79.188,127.783c-1.473,0.391-1.774,1.133-1.707,2.34
	c0.061,1.088,0.425,1.602,1.86,1.477c-1.216,1.078-2.408,0.936-2.517-0.016c-0.195-1.706-1.248-3.628,0.563-5.462
	C77.361,127.341,78.062,127.678,79.188,127.783z"/>
<path style="fill-rule:evenodd;clip-rule:evenodd;fill:#2C4956;" d="M70.771,139.13c-1.451,0.254-2.858-0.042-2.823,1.837
	c0.034,1.812,1.296,1.538,2.957,1.593c-1.47,1.111-2.518,1.019-3.327,0.155c-0.987-1.053-1.01-2.419-0.067-3.497
	C68.289,138.327,69.375,138.083,70.771,139.13z"/>
<path style="fill-rule:evenodd;clip-rule:evenodd;fill:#284754;" d="M71.659,131.749c0.575-0.616,1.026-0.094,1.461-0.205
	c0.357-0.092,0.876,0.164,1.008-0.385c0.115-0.486-0.26-0.689-0.655-0.87c-0.872-0.398-2.242-0.69-1.529-2.002
	c0.741-1.363,1.959-0.907,3.274-0.022c-1.031,0.048-1.797,0.083-2.673,0.124c0.252,1.579,3.896,1.136,2.141,3.512
	C74.031,132.784,72.686,132.64,71.659,131.749z"/>
<path style="fill-rule:evenodd;clip-rule:evenodd;fill:#1B404D;" d="M72.617,136.902c-0.152,1.545,0.888,1.501,2.037,1.966
	c-1.416,0.401-2.041,0.891-1.988,2.174c0.047,1.162,0.596,1.561,1.875,1.787c-1.146,0.707-2.083,0.81-2.39-0.067
	C71.524,140.972,71.121,139.072,72.617,136.902z"/>
<path style="fill-rule:evenodd;clip-rule:evenodd;fill:#193F4C;" d="M75.307,149.953c0.128-1.043,0.624-1.218,0.965-1.506
	c0.347-0.293,0.704-0.745,1.23-0.518c0.583,0.253,0.279,0.832,0.29,1.253c0.038,1.487,0.014,2.976,0.006,4.464
	c-0.002,0.36-0.102,0.702-0.553,0.631c-0.307-0.048-0.36-0.352-0.362-0.626c-0.007-1.015-0.118-2.044,0.016-3.04
	C77.099,149.127,76.474,149.15,75.307,149.953z"/>
<path style="fill-rule:evenodd;clip-rule:evenodd;fill:#284754;" d="M81.14,131.869c0.145-0.114,0.289-0.229,0.435-0.344
	c1.019-1.081,1.17-2.149-0.043-3.2c-0.002-0.144-0.004-0.287-0.006-0.431c0.953-0.846,1.797-0.464,2.388,0.388
	c0.761,1.097,0.713,2.324-0.098,3.39C83.052,132.674,82.085,132.514,81.14,131.869z"/>
<path style="fill-rule:evenodd;clip-rule:evenodd;fill:#123C49;" d="M63.517,127.307c0.053-0.782,0.155-1.595,1.22-1.429
	c0.926,0.145,0.489,0.966,0.508,1.473c0.06,1.655,0.022,3.313-0.292,4.995c-0.882-1.397-0.406-2.971-0.604-4.445
	c-0.008-0.057-0.085-0.153-0.118-0.148c-0.099,0.015-0.191,0.071-0.286,0.11C63.514,127.899,63.361,127.721,63.517,127.307z"/>
<path style="fill-rule:evenodd;clip-rule:evenodd;fill:#254552;" d="M82.266,151.538c0.322-0.273,0.646-0.548,0.968-0.821
	c-0.111,0.35-0.03,0.59,0.266,0.864c0.848,0.786,0.941,1.691-0.076,2.358c-1.134,0.742-2.399,0.705-3.242-0.415
	c-0.732-0.975-0.218-1.766,0.881-2.164c0.015,0.169,0.029,0.338,0.043,0.507C81.792,152.818,82.063,152.3,82.266,151.538z"/>
<path style="fill-rule:evenodd;clip-rule:evenodd;fill:#304C58;" d="M63.886,137.721c0.174-0.145,0.348-0.289,0.522-0.435
	c2.036,1.604,2.037,4.022,0.001,5.633c-0.174-0.146-0.349-0.29-0.523-0.435C63.994,140.897,63.994,139.309,63.886,137.721z"/>
<path style="fill-rule:evenodd;clip-rule:evenodd;fill:#224350;" d="M67.149,151.837c0.928-3.036,0.928-3.036-2.469-3.046
	c1.3-1.071,2.595-1.521,3.571-0.176C69.216,149.947,68.375,151.083,67.149,151.837z"/>
<path style="fill-rule:evenodd;clip-rule:evenodd;fill:#334E5A;" d="M63.517,127.307c0.142,0.186,0.285,0.371,0.427,0.556
	c-0.408,1.188-0.772,2.394-1.251,3.552c-0.144,0.348-0.103,1.069-0.794,0.934c-0.623-0.121-0.824-0.603-0.695-1.215
	c0.136-0.163,0.272-0.326,0.409-0.489C63.092,130.014,62.521,128.213,63.517,127.307z"/>
<path style="fill-rule:evenodd;clip-rule:evenodd;fill:#1D414E;" d="M69.374,154.36c-1.632,0-2.751,0.001-3.871,0
	c-0.441,0-0.866-0.074-0.685-0.662c0.14-0.455,0.784-1.066,0.916-0.831C66.503,154.238,68.05,152.966,69.374,154.36z"/>
<path style="fill-rule:evenodd;clip-rule:evenodd;fill:#123C49;" d="M85.537,129.897c0.319-0.759-0.414-2.23,0.489-2.238
	c1.104-0.01,0.517,1.423,0.492,2.169c-0.027,0.82,0.648,2.284-0.521,2.353C85.193,132.228,85.836,130.698,85.537,129.897z"/>
<path style="fill-rule:evenodd;clip-rule:evenodd;fill:#3A545F;" d="M87.641,145.039c-0.146-1.194-0.226-1.864,0.327-2.423
	c0.092-0.094,0.517-0.059,0.545,0.014C88.817,143.403,88.337,143.958,87.641,145.039z"/>
<path style="fill-rule:evenodd;clip-rule:evenodd;fill:#3F5762;" d="M86.231,126.678c-0.485-0.121-0.671-0.353-0.636-0.738
	c0.028-0.312,0.242-0.502,0.519-0.479c0.369,0.031,0.599,0.313,0.517,0.678C86.582,126.353,86.351,126.525,86.231,126.678z"/>
<path style="fill-rule:evenodd;clip-rule:evenodd;fill:#C4C3C2;" d="M96.99,103.041c0.011,3.974-0.064,7.95,0.071,11.92
	c0.063,1.837-0.449,2.679-2.354,2.328c-1.003-0.764-1.728-1.834-2.792-2.534c-0.406-0.425-0.731-0.899-0.9-1.469
	c-0.041-0.189-0.048-0.382-0.03-0.574c0.23-1.271,1.273-2.244,1.329-3.583c-0.016-0.681,0.108-1.378-0.245-2.016
	c-0.214-0.433-0.41-0.877-0.848-1.146c-0.297-0.195-0.599-0.376-0.926-0.518c-1.134-0.436-2.521,0.218-3.51-0.825
	c-0.35-0.469-0.809-0.922-0.217-1.523C90.041,102.634,93.515,102.739,96.99,103.041z"/>
<path style="fill-rule:evenodd;clip-rule:evenodd;fill:#C4C4C3;" d="M96.99,103.041c-2.813,0-5.625,0.008-8.438-0.004
	c-0.746-0.003-1.473,0.039-2.142,0.411c-0.519-0.183-1.063-0.157-1.6-0.218c-1.194-0.136-1.501,0.395-1.479,1.517
	c0.062,3.047,0.028,6.096,0.015,9.145c-0.002,0.582,0.109,1.176,0.009,1.47c-0.001-3.128-0.025-6.535,0.016-9.942
	c0.012-0.948-0.548-2.203,1.375-2.224c1.862-0.021,1.424,1.145,1.485,2.149c0.367,1.191,1.086,2.266,1.204,3.54
	c0.108,1.372,0.955,2.489,1.314,3.777c0.028,0.197,0.021,0.393-0.012,0.589c-0.158,0.58-0.493,1.054-0.895,1.487
	c-1.063,0.701-1.801,1.761-2.787,2.547c-1.771,0.33-2.382-0.353-2.313-2.182c0.134-3.579,0.048-7.167,0.034-10.751
	c-0.003-0.955,0.046-1.744,1.353-1.73c3.99,0.04,7.98,0.009,11.97,0.037C96.398,102.66,96.693,102.907,96.99,103.041z"/>
<path style="fill-rule:evenodd;clip-rule:evenodd;fill:#4267B1;" d="M85.058,117.285c-0.058-1.771,1.266-2.347,2.553-2.955
	c0.949-0.18,1.811,0.588,2.771,0.25c0.593-0.028,1.125-0.502,1.756-0.247c1.338,0.568,2.591,1.208,2.57,2.956
	C91.491,117.287,88.274,117.286,85.058,117.285z"/>
<path style="fill-rule:evenodd;clip-rule:evenodd;fill:#E9E9E9;" d="M116.98,106.933c-5.448,0-10.896,0-16.345,0
	c-0.002-0.137-0.004-0.273-0.005-0.41c5.449,0,10.897,0,16.347,0C116.979,106.66,116.979,106.796,116.98,106.933z"/>
<path style="fill-rule:evenodd;clip-rule:evenodd;fill:#EAEAEA;" d="M100.637,102.763c5.447,0,10.896,0,16.343,0
	c0.003,0.135,0.005,0.271,0.008,0.405c-5.449,0-10.897,0-16.347,0C100.64,103.034,100.638,102.898,100.637,102.763z"/>
<path style="fill-rule:evenodd;clip-rule:evenodd;fill:#E7E7E7;" d="M116.877,105.31c-5.413,0-10.826,0-16.239,0
	c-0.001-0.136-0.003-0.272-0.005-0.408c5.419,0,10.838,0,16.256,0C116.885,105.038,116.881,105.174,116.877,105.31z"/>
<path style="fill-rule:evenodd;clip-rule:evenodd;fill:#EAEBEB;" d="M100.64,110.167c2.599,0,5.197,0,7.795,0
	c0.001,0.136,0.001,0.272,0.001,0.408c-2.599,0-5.196,0-7.795,0C100.641,110.44,100.64,110.303,100.64,110.167z"/>
<path style="fill-rule:evenodd;clip-rule:evenodd;fill:#E9E9E9;" d="M100.635,113.759c2.599,0,5.197,0,7.796,0
	c0.004,0.137,0.009,0.273,0.013,0.41c-2.601,0-5.201,0-7.803,0C100.639,114.033,100.637,113.896,100.635,113.759z"/>
<path style="fill-rule:evenodd;clip-rule:evenodd;fill:#E7E7E7;" d="M108.355,112.551c-2.57,0-5.14,0-7.71,0
	c-0.006-0.108-0.011-0.217-0.017-0.324c2.57,0,5.141,0,7.711,0C108.345,112.334,108.351,112.443,108.355,112.551z"/>
<path style="fill-rule:evenodd;clip-rule:evenodd;fill:#F2F2F2;" d="M73.002,151.113c-0.182,0.916,0.34,2.376-1.166,2.351
	c-1.35-0.023-1.192-1.439-1.183-2.378c0.01-0.932-0.173-2.363,1.21-2.351C73.345,148.749,72.814,150.204,73.002,151.113z"/>
<path style="fill-rule:evenodd;clip-rule:evenodd;fill:#E5E6E7;" d="M69.229,131.51c-0.552-0.12-1.533,0.537-1.505-0.625
	c0.018-0.683,0.814-0.625,1.316-0.54c1.367,0.233,0.229,0.794,0.122,1.221C69.159,131.566,69.229,131.51,69.229,131.51z"/>
<path style="fill-rule:evenodd;clip-rule:evenodd;fill:#FAFAFA;" d="M63.886,137.721c1.359,1.588,1.359,3.176,0,4.764
	c-2.183,0.053-2.841-0.499-2.841-2.382C61.045,138.221,61.704,137.669,63.886,137.721z"/>
<path style="fill-rule:evenodd;clip-rule:evenodd;fill:#F2F2F3;" d="M81.531,128.325c1.188-0.225,1.867,0.322,1.893,1.471
	c0.026,1.161-0.47,1.972-1.85,1.729C80.885,130.467,80.91,129.4,81.531,128.325z"/>
<path style="fill-rule:evenodd;clip-rule:evenodd;fill:#EBECEC;" d="M82.266,151.538c0.452,0.425,1.237,0.715,0.801,1.551
	c-0.352,0.672-1.042,0.539-1.588,0.375c-0.944-0.284-0.619-0.974-0.374-1.597C81.492,151.757,81.879,151.648,82.266,151.538z"/>
<path style="fill-rule:evenodd;clip-rule:evenodd;fill:#E6E7E8;" d="M81.992,150.647c-0.542-0.191-0.916-0.524-0.894-1.156
	c0.021-0.578,0.359-0.827,0.91-0.834c0.64-0.007,1.072,0.325,1.029,0.945C83,150.148,82.643,150.585,81.992,150.647z"/>
<path style="fill-rule:evenodd;clip-rule:evenodd;fill:#FACCB5;" d="M88.438,112.82c-0.734-1.131-1.779-2.127-1.573-3.661
	c1.107-2.757,3.411-3.24,5.46-1.15c0.174,0.357,0.209,0.783,0.505,1.088c0.342,1.587-0.805,2.568-1.517,3.726
	C90.353,113.966,89.395,113.977,88.438,112.82z"/>
<path style="fill-rule:evenodd;clip-rule:evenodd;fill:#97603E;" d="M92.135,108.734c-1.278-1.861-3.252-1.702-5.271,0.424
	c-0.082-1.235-0.793-2.219-1.313-3.279c-0.419-1.55,0.456-1.757,1.671-1.61c1.146,0.854,2.646-0.072,3.797,0.756
	c-0.77,0.63-1.765-0.045-2.731,0.479c-0.092,0.021,0.336,0.195,0.185-0.03c-0.071-0.107-0.05-0.16,0.063-0.173
	c1.065-0.116,2.111,0.058,3.158,0.215c0.71,0.069,0.783,0.605,0.843,1.151C92.663,107.407,93.191,108.224,92.135,108.734z"/>
<path style="fill-rule:evenodd;clip-rule:evenodd;fill:#C1C0BE;" d="M87.223,104.268c-0.891,0.19-1.653,0.514-1.671,1.61
	c-0.86-0.764,0.184-1.464,0.115-2.225c-1.525-0.515-2.147-0.021-2.124,1.578c0.054,3.697,0.017,7.396-0.375,11.095
	c0-4.045-0.218-8.105,0.092-12.126c0.157-2.038,1.918-1.167,3.151-0.753C86.682,103.721,86.952,103.995,87.223,104.268z"/>
<path style="fill-rule:evenodd;clip-rule:evenodd;fill:#ECEAEA;" d="M92.138,114.333c-0.62,0.211-0.663,1.426-1.672,0.961
	c-0.087-0.762-1.424-0.317-1.268-1.314c0.678-0.345,1.331-0.76,2.126-0.79C91.8,113.425,92.033,113.833,92.138,114.333z"/>
<path style="fill-rule:evenodd;clip-rule:evenodd;fill:#FAC1A7;" d="M91.324,113.189c-0.627,0.428-1.181,1.038-2.063,0.826
	c-0.513-0.034-0.78-0.318-0.838-0.818c0.002-0.126,0.007-0.252,0.015-0.377c0.958,0.364,1.916,0.354,2.875,0.002
	C91.314,112.945,91.318,113.067,91.324,113.189z"/>
<path style="fill-rule:evenodd;clip-rule:evenodd;fill:#935832;" d="M91.694,105.515c-1.176,0.396-2.294-0.244-3.469-0.351
	c0.932-0.047,1.862-0.094,2.793-0.141C91.244,105.188,91.469,105.351,91.694,105.515z"/>
<path style="fill-rule:evenodd;clip-rule:evenodd;fill:#A16542;" d="M92.135,108.734c0.589-0.601,0.306-1.371,0.402-2.067
	c0.567,0.753,0.274,1.609,0.292,2.429C92.341,109.467,92.057,109.447,92.135,108.734z"/>
<path style="fill-rule:evenodd;clip-rule:evenodd;fill:#E9E9EB;" d="M88.423,113.197c0.279,0.272,0.559,0.546,0.838,0.818
	c0.326,0.497,1.234,0.446,1.205,1.278c-1.014-0.136-2.24,0.356-2.854-0.963C87.709,113.829,87.955,113.433,88.423,113.197z"/>
</svg>
