<svg xmlns="http://www.w3.org/2000/svg" xmlns:xlink="http://www.w3.org/1999/xlink" preserveAspectRatio="xMidYMid" width="18" height="18" viewBox="0 0 18 18">
  <defs>
    <style>
      .cls-1 {
        fill: #adb6c0;
        fill-rule: evenodd;
      }
    </style>
  </defs>
  <path d="M14.667,7.375 L13.667,7.375 L13.667,5.958 C13.667,3.224 11.573,1.000 9.000,1.000 C6.427,1.000 4.333,3.224 4.333,5.958 L4.333,7.375 L3.333,7.375 C3.149,7.375 3.000,7.533 3.000,7.729 L3.000,16.583 C3.000,17.365 3.598,18.000 4.333,18.000 L13.667,18.000 C14.402,18.000 15.000,17.365 15.000,16.583 L15.000,7.729 C15.000,7.533 14.851,7.375 14.667,7.375 ZM9.998,14.773 C10.008,14.873 9.978,14.974 9.915,15.049 C9.852,15.124 9.761,15.167 9.667,15.167 L8.333,15.167 C8.239,15.167 8.148,15.124 8.085,15.049 C8.022,14.974 7.992,14.873 8.002,14.773 L8.212,12.764 C7.871,12.500 7.667,12.083 7.667,11.625 C7.667,10.844 8.265,10.208 9.000,10.208 C9.735,10.208 10.333,10.844 10.333,11.625 C10.333,12.083 10.129,12.500 9.788,12.764 L9.998,14.773 ZM11.667,7.375 L6.333,7.375 L6.333,5.958 C6.333,4.396 7.530,3.125 9.000,3.125 C10.470,3.125 11.667,4.396 11.667,5.958 L11.667,7.375 Z" class="cls-1"/>
</svg>
