<svg xmlns="http://www.w3.org/2000/svg" xmlns:xlink="http://www.w3.org/1999/xlink" preserveAspectRatio="xMidYMid" width="228" height="155" viewBox="0 0 228 155">
  <defs>
    <style>
      .cls-1 {
        fill: #adb6c0;
        fill-rule: evenodd;
      }
    </style>
  </defs>
  <path d="M119.497,23.000 C86.826,23.000 57.198,40.887 35.336,69.940 C33.552,72.320 33.552,75.645 35.336,78.025 C57.198,107.113 86.826,125.000 119.497,125.000 C152.167,125.000 181.795,107.113 203.657,78.060 C205.441,75.680 205.441,72.355 203.657,69.975 C181.795,40.887 152.167,23.000 119.497,23.000 ZM121.840,109.913 C100.153,111.278 82.244,93.392 83.608,71.655 C84.727,53.733 99.244,39.207 117.153,38.086 C138.840,36.721 156.750,54.608 155.385,76.345 C154.231,94.232 139.715,108.758 121.840,109.913 ZM120.756,93.322 C109.073,94.057 99.419,84.431 100.188,72.740 C100.783,63.079 108.618,55.273 118.272,54.643 C129.956,53.908 139.610,63.534 138.840,75.225 C138.211,84.921 130.375,92.727 120.756,93.322 Z" class="cls-1"/>
</svg>
